<?xml version="1.0" encoding="UTF-8" standalone="no"?>
<!-- Created with Inkscape (http://www.inkscape.org/) -->

<svg
   version="1.1"
   id="svg1"
   width="122.95294"
   height="91.991089"
   viewBox="0 0 122.95294 91.991093"
   xmlns="http://www.w3.org/2000/svg"
   xmlns:svg="http://www.w3.org/2000/svg">
  <defs
     id="defs1" />
  <g
     id="g1"
     transform="translate(-358.73642,-558.21201)">
    <path
       id="path2"
       d="m 366.39864,591.96468 v 0.81054 h 11.2355 v -0.81054 h -5.9703 l 3.18943,-9.76599 h 10.16796 l 3.28828,9.76599 h -5.21249 v 0.81054 h 14.8335 v -0.81054 h -4.40853 L 382.44465,558.3109 h -0.61285 l -11.08394,33.65378 z m 13.51554,-25.04759 4.85664,14.47107 h -9.61442 z m 31.47588,-7.79566 c 1.51893,0 2.86818,0.23724 4.0461,0.7117 1.18121,0.47116 2.16802,1.26358 2.95878,2.3789 0.79407,1.11201 1.40362,2.57987 1.82536,4.40193 0.42175,1.81877 0.63262,4.07905 0.63262,6.78084 v 5.06092 c 0,4.88959 -0.81054,8.50735 -2.43161,10.85329 -1.61778,2.34595 -3.96043,3.51893 -7.03125,3.51893 -3.07082,0 -5.41677,-1.17298 -7.03784,-3.51893 -1.61778,-2.34594 -2.42502,-5.9637 -2.42502,-10.85329 v -5.06092 c 0,-2.63095 0.21087,-4.85004 0.63262,-6.65563 0.42174,-1.80559 1.02799,-3.2718 1.81876,-4.40194 0.79407,-1.13344 1.78087,-1.95221 2.95879,-2.45797 1.18121,-0.50412 2.5321,-0.75783 4.05269,-0.75783 z m 3.13671,34.20733 c 1.78747,-0.43493 3.44808,-1.20757 4.98185,-2.31959 1.53705,-1.11532 2.86159,-2.45797 3.97361,-4.02633 1.11531,-1.56836 1.99339,-3.29652 2.63589,-5.18613 0.64085,-1.89289 0.9621,-3.85005 0.9621,-5.87144 0,-2.29653 -0.41516,-4.51562 -1.24546,-6.65564 -0.82701,-2.14331 -1.94892,-4.03292 -3.36736,-5.66718 -1.41514,-1.63754 -3.07575,-2.9456 -4.98184,-3.92089 -1.90278,-0.97858 -3.93407,-1.46951 -6.0955,-1.46951 -2.16143,0 -4.19602,0.49093 -6.1021,1.46951 -1.90278,0.97529 -3.5634,2.28335 -4.98184,3.92089 -1.41514,1.63426 -2.53704,3.52387 -3.36735,5.66718 -0.82701,2.14002 -1.23887,4.35911 -1.23887,6.65564 0,2.02139 0.3196,3.97855 0.9621,5.87144 0.64085,1.88961 1.51728,3.61777 2.6293,5.18613 1.11532,1.56836 2.43985,2.91101 3.97361,4.02633 1.53706,1.11202 3.19932,1.88466 4.98844,2.31959 l 0.0988,1.31794 c 0.17133,2.16143 0.63426,3.88135 1.39043,5.15977 0.75947,1.2817 1.75452,2.25369 2.98516,2.91266 1.23392,0.65897 2.68531,1.08071 4.35581,1.26523 1.66885,0.18451 3.51563,0.27676 5.54197,0.27676 0.30312,0 0.45469,-0.10214 0.45469,-0.30312 0,-0.23394 -0.15157,-0.34925 -0.45469,-0.34925 -1.04612,0 -2.04941,-0.11862 -3.01151,-0.35585 -0.96211,-0.23724 -1.82371,-0.68533 -2.58318,-1.34431 -0.75617,-0.65897 -1.36242,-1.58812 -1.81877,-2.78745 -0.45798,-1.19604 -0.68533,-2.75451 -0.68533,-4.67872 z m 22.47265,-34.56317 h -13.61439 v 0.81054 h 4.34922 v 24.74446 c 0,1.78911 0.34432,3.28169 1.03459,4.48102 0.69357,1.19933 1.58977,2.17131 2.68861,2.91266 1.09719,0.74299 2.32123,1.26523 3.67049,1.56836 1.3476,0.30313 2.67872,0.45469 3.99337,0.45469 3.20591,0 5.70342,-0.78418 7.49253,-2.35254 1.78747,-1.56836 2.68203,-3.92253 2.68203,-7.06419 v -24.74446 h 4.35581 v -0.81054 h -9.51557 v 0.81054 h 4.34922 v 24.74446 c 0,1.35419 -0.21087,2.56175 -0.63261,3.62435 -0.42174,1.0593 -1.00493,1.95386 -1.74629,2.68203 -0.74298,0.72487 -1.61283,1.27511 -2.60953,1.64742 -0.9934,0.36903 -2.06259,0.55355 -3.2092,0.55355 -2.36407,0 -4.22897,-0.73312 -5.59469,-2.20097 -1.36737,-1.46622 -2.04941,-3.56835 -2.04941,-6.30638 v -24.74446 h 4.35582 z m 13.15806,33.19909 v 0.81054 h 11.2355 v -0.81054 h -5.9703 l 3.18943,-9.76599 h 10.16796 l 3.28828,9.76599 h -5.21248 v 0.81054 h 14.83349 v -0.81054 h -4.40853 L 466.20348,558.3109 h -0.61284 l -11.08394,33.65378 z m 13.51554,-25.04759 4.85664,14.47107 h -9.61442 z m 0,0"
       style="fill:#5271ff;fill-opacity:1;fill-rule:nonzero;stroke:none;stroke-width:0.562324"
       aria-label="AQUA" />
    <path
       id="path3"
       d="m 387.74608,628.88533 c -0.11861,0 -0.24052,0.13509 -0.36243,0.40197 -0.43986,0.99835 -0.91597,1.92914 -1.42997,2.79405 -0.51071,0.86655 -1.0939,1.61778 -1.75287,2.25369 -0.65568,0.63262 -1.38714,1.12684 -2.19439,1.48269 -0.80394,0.35255 -1.69191,0.52718 -2.66225,0.52718 -2.21909,0 -3.86488,-0.8649 -4.93571,-2.59636 -1.07248,-1.7298 -1.60789,-4.2652 -1.60789,-7.60456 v -4.09222 c 0,-3.21909 0.54694,-5.70012 1.64084,-7.43981 1.09719,-1.74298 2.79075,-2.61613 5.08069,-2.61613 0.95221,0 1.81877,0.15486 2.59635,0.46129 0.78088,0.30313 1.48928,0.72322 2.12189,1.25863 0.63262,0.53706 1.17957,1.18287 1.64085,1.93739 0.46458,0.75617 0.84349,1.5733 1.13343,2.45138 0.0741,0.24217 0.15981,0.36243 0.257,0.36243 0.12192,0 0.18452,-0.14497 0.18452,-0.43492 v -5.96371 c 0,-0.21911 -0.0247,-0.36408 -0.0725,-0.43492 -0.0495,-0.0741 -0.12191,-0.11203 -0.21746,-0.11203 -0.12356,0 -0.28337,0.0988 -0.48105,0.29654 l -1.42339,1.45634 c -0.77759,-0.63262 -1.65402,-1.11368 -2.6293,-1.44316 -0.97529,-0.32948 -2.01317,-0.49423 -3.11036,-0.49423 -1.6079,0 -3.10212,0.36738 -4.48102,1.10049 -1.37561,0.72981 -2.56835,1.69191 -3.57822,2.8863 -1.01153,1.19604 -1.79735,2.55517 -2.35914,4.07905 -0.55847,1.52058 -0.83689,3.06093 -0.83689,4.6194 0,1.80559 0.3229,3.49586 0.96869,5.06751 0.64579,1.56836 1.49093,2.93902 2.53706,4.112 1.04941,1.16967 2.23061,2.09388 3.54527,2.77427 1.31795,0.6804 2.65896,1.02142 4.02633,1.02142 1.14167,0 2.23556,-0.22736 3.28169,-0.67875 1.04941,-0.4481 1.9901,-1.13509 2.82041,-2.06259 l 1.93738,2.1219 c 0.1219,0.12191 0.23228,0.18451 0.32948,0.18451 0.14498,0 0.21746,-0.0857 0.21746,-0.257 v -7.05761 c 0,-0.24053 -0.0626,-0.36243 -0.18451,-0.36243 z m 5.22731,-5.22566 h 2.88631 c 0.53541,0 0.9621,0.0791 1.27841,0.23722 0.3196,0.15816 0.57001,0.38551 0.75123,0.67875 0.18451,0.28995 0.32454,0.64414 0.42174,1.06095 0.0956,0.4135 0.19275,0.87478 0.28995,1.38384 0.0741,0.34267 0.17298,0.514 0.29654,0.514 0.14498,0 0.21746,-0.15815 0.21746,-0.47446 v -7.42004 c 0,-0.29325 -0.0725,-0.44152 -0.21746,-0.44152 -0.12356,0 -0.22241,0.17134 -0.29654,0.514 -0.0972,0.51071 -0.1944,0.97364 -0.28995,1.39044 -0.0972,0.4135 -0.23723,0.7677 -0.42174,1.06095 -0.18122,0.28995 -0.43163,0.514 -0.75123,0.67215 -0.31631,0.15815 -0.743,0.23723 -1.27841,0.23723 h -2.88631 v -10.74786 h 5.55515 c 0.83031,0 1.52388,0.20264 2.08236,0.60626 0.56177,0.40032 1.01152,0.89949 1.3509,1.49587 0.34266,0.59802 0.59307,1.23227 0.75122,1.90443 0.15816,0.66886 0.25042,1.27017 0.27677,1.80559 0,0.34266 0.0955,0.514 0.28995,0.514 0.17133,0 0.257,-0.15815 0.257,-0.47446 v -5.55515 c 0,-0.58814 -0.30313,-0.88303 -0.90939,-0.88303 h -16.34254 v 0.58649 h 3.1433 v 23.39356 h -3.10376 v 0.58649 h 17.17944 c 0.70675,0 1.06095,-0.39045 1.06095,-1.17297 v -5.48266 c 0,-0.58319 -0.0988,-0.87644 -0.29654,-0.87644 -0.17133,0 -0.30642,0.257 -0.40197,0.771 -0.1944,0.92751 -0.40033,1.76935 -0.61944,2.52387 -0.22075,0.75617 -0.51235,1.40856 -0.87643,1.95715 -0.36574,0.54531 -0.82866,0.9654 -1.39043,1.25864 -0.56343,0.28995 -1.27018,0.43492 -2.1219,0.43492 h -5.88464 z m 29.13652,5.88463 c -0.19769,0.92751 -0.40691,1.76935 -0.62602,2.52387 -0.22076,0.75617 -0.51235,1.40856 -0.87644,1.95715 -0.36573,0.54531 -0.82866,0.9654 -1.39043,1.25864 -0.55849,0.28995 -1.26358,0.43492 -2.11531,0.43492 h -7.49253 v -23.39356 h 3.46621 v -0.58649 h -10.16138 v 0.58649 h 3.1433 v 23.39356 h -3.1433 v 0.58649 h 18.82688 c 0.70675,0 1.06094,-0.39045 1.06094,-1.17297 v -5.48266 c 0,-0.58319 -0.0972,-0.87644 -0.28994,-0.87644 -0.17134,0 -0.30643,0.257 -0.40198,0.771 z m 17.69014,0 c -0.19768,0.92751 -0.40691,1.76935 -0.62602,2.52387 -0.22076,0.75617 -0.51235,1.40856 -0.87643,1.95715 -0.36573,0.54531 -0.82866,0.9654 -1.39044,1.25864 -0.55847,0.28995 -1.26358,0.43492 -2.11531,0.43492 h -7.49252 v -23.39356 h 3.4662 v -0.58649 h -10.16137 v 0.58649 h 3.1433 v 23.39356 h -3.1433 v 0.58649 h 18.82687 c 0.70675,0 1.06095,-0.39045 1.06095,-1.17297 v -5.48266 c 0,-0.58319 -0.0972,-0.87644 -0.28995,-0.87644 -0.17133,0 -0.30642,0.257 -0.40198,0.771 z m -1.83194,6.17458 v 0.58649 h 8.11197 v -0.58649 h -4.30969 l 2.29981,-7.05101 h 7.34756 l 2.3789,7.05101 h -3.76274 v 0.58649 h 10.70832 v -0.58649 h -3.18285 l -8.00652,-24.30953 h -0.43492 l -8.00653,24.30953 z m 9.7594,-18.09541 3.51233,10.45791 h -6.94558 z m 28.69501,17.10695 c -0.0758,-0.24052 -0.13015,-0.58154 -0.16474,-1.0214 -0.0363,-0.43823 -0.0593,-0.91269 -0.0725,-1.42339 -0.0132,-0.514 -0.0264,-1.03789 -0.0395,-1.57495 -0.0132,-0.53541 -0.056,-1.04776 -0.1252,-1.5354 -0.14498,-0.97528 -0.3888,-1.77924 -0.73146,-2.41185 -0.34267,-0.63261 -0.75782,-1.14826 -1.24546,-1.54858 -0.48765,-0.40363 -1.04777,-0.71994 -1.68038,-0.94893 -0.63262,-0.23229 -1.3163,-0.4481 -2.04942,-0.64579 1.90114,-0.33773 3.36407,-1.01152 4.38877,-2.02305 1.02306,-1.01482 1.53541,-2.28829 1.53541,-3.82205 0,-0.95221 -0.20264,-1.80723 -0.60626,-2.5634 -0.40033,-0.75453 -0.94233,-1.38715 -1.62766,-1.89785 -0.68205,-0.514 -1.49258,-0.90444 -2.43162,-1.17297 -0.93574,-0.26688 -1.9275,-0.40198 -2.97197,-0.40198 h -10.30634 v 0.58649 h 3.1433 v 23.39356 h -3.1433 v 0.58649 h 9.83188 v -0.58649 h -3.1433 V 623.7651 h 3.03127 c 0.39045,0 0.80396,0.0692 1.23888,0.20429 0.43821,0.13179 0.84678,0.38714 1.22568,0.7644 0.37727,0.37892 0.70676,0.9028 0.98847,1.57495 0.28006,0.66886 0.4827,1.52717 0.60625,2.57659 0.0692,0.63261 0.11203,1.27841 0.12521,1.93738 0.0132,0.65897 0.0495,1.29488 0.11203,1.90444 0.061,0.60625 0.17132,1.16638 0.32948,1.68038 0.15815,0.5107 0.40527,0.94727 0.74464,1.31135 0.3196,0.34267 0.69357,0.57331 1.12026,0.69192 0.42503,0.12192 0.88302,0.18452 1.37066,0.18452 0.41186,0 0.82536,-0.0428 1.23888,-0.12521 0.41679,-0.084 0.80064,-0.18616 1.1532,-0.30971 0.3509,-0.12192 0.65402,-0.25041 0.90937,-0.38221 0.25866,-0.13509 0.44975,-0.26523 0.57332,-0.38879 0.0692,-0.0692 0.10543,-0.14168 0.10543,-0.21746 0,-0.0741 -0.0363,-0.11203 -0.10543,-0.11203 -0.0527,0 -0.1285,0.0247 -0.22405,0.0725 -0.48764,0.34267 -1.0346,0.514 -1.64085,0.514 -0.75617,0 -1.24381,-0.30477 -1.46292,-0.91597 z m -11.43979,-11.54521 v -10.85989 h 3.61777 c 2.77593,0 4.16471,1.59801 4.16471,4.79074 v 1.31795 c 0,3.16801 -1.38878,4.7512 -4.16471,4.7512 z m 0,0"
       style="fill:#5271ff;fill-opacity:1;fill-rule:nonzero;stroke:none;stroke-width:0.562324"
       aria-label="CELLAR" />
    <path
       id="path4"
       d="m 388.52203,622.38455 c -0.90115,0 -1.69686,-0.10378 -2.38549,-0.30972 -1.5387,-0.54035 -2.55682,-1.4728 -3.05764,-2.79404 -0.29983,-0.84349 -0.4481,-1.57165 -0.4481,-2.18779 0,-0.31631 0.0363,-0.62768 0.11203,-0.93575 0.3163,-1.53705 0.73146,-2.87971 1.24546,-4.02632 0.25371,-0.62768 0.72158,-1.51564 1.40361,-2.66226 0.68039,-1.14661 1.10873,-1.87972 1.285,-2.20098 0.52224,-0.96209 1.33772,-2.17625 2.44479,-3.64412 1.00494,-1.2817 1.79405,-2.32288 2.36572,-3.12353 -0.14168,0.20758 -0.0495,0.1252 0.27677,-0.24382 0.44316,-0.4827 1.03459,-1.15485 1.77263,-2.01646 0.14004,-0.16145 0.60132,-0.63262 1.38385,-1.41021 0.23229,-0.23722 0.66227,-0.66556 1.29158,-1.28499 0.63262,-0.61943 1.07084,-1.05107 1.31796,-1.29818 -0.47941,-0.061 -0.89951,-0.0988 -1.25864,-0.11203 -0.084,0 -0.84843,-0.0807 -2.29323,-0.24381 -0.50082,-0.0824 -1.33113,-0.22076 -2.49092,-0.41516 -1.40197,-0.16144 -2.17956,-0.26524 -2.33277,-0.30972 -0.40032,-0.10049 -0.88302,-0.15156 -1.44974,-0.15156 -0.35585,0 -0.86655,-0.0363 -1.52882,-0.11202 -0.65898,-0.0791 -1.09225,-0.12851 -1.29818,-0.15157 -1.74463,-0.12191 -2.71333,-0.19275 -2.90607,-0.21087 -0.48435,-0.061 -1.16474,-0.11368 -2.04282,-0.15815 -0.10544,0 -0.21582,-0.003 -0.32948,-0.0132 -0.11039,-0.008 -0.23559,-0.0231 -0.37562,-0.0461 -0.13674,-0.0214 -0.24711,-0.0329 -0.32949,-0.0329 -0.43987,-0.061 -1.0906,-0.0956 -1.95056,-0.10544 h -0.32289 c -0.27678,0 -0.48765,-0.0296 -0.63262,-0.0923 -0.10214,-0.0395 -0.26359,-0.0593 -0.48764,-0.0593 -0.27677,0 -0.514,0.0511 -0.7117,0.15156 l -0.75122,-0.18451 c -0.33937,0.12356 -0.68369,0.18451 -1.03459,0.18451 -0.33937,0 -0.62438,-0.0494 -0.85666,-0.15156 -0.42175,0.10214 -0.65239,0.15156 -0.69193,0.15156 -0.29983,-0.0214 -1.42173,0.056 -3.36735,0.23065 -1.72322,0.10213 -3.16802,0.35254 -4.33605,0.75123 -1.13838,0.3822 -1.87643,0.65567 -2.21415,0.81713 -0.82207,0.42174 -1.58648,0.96045 -2.29323,1.61448 -0.084,0.084 -0.21087,0.1878 -0.3822,0.30972 h -0.12521 v -0.0923 c 0,-0.20593 0.0922,-0.3855 0.27677,-0.54036 1.68203,-1.46622 3.42337,-2.36901 5.22566,-2.70838 1.24217,-0.23229 2.6326,-0.43163 4.1713,-0.59967 0.43822,-0.0395 2.10378,-0.089 4.99502,-0.15156 0.18451,0 0.46787,-0.003 0.85008,-0.0132 0.3855,-0.0132 0.66227,-0.0198 0.8303,-0.0198 0.54036,0 1.33937,0.0231 2.39867,0.0659 1.40032,0.0396 2.54364,0.14168 3.42666,0.30313 0.12191,0.0231 0.46458,0.0329 1.028,0.0329 0.20593,0.0231 0.40527,0.0296 0.59966,0.0198 0.1977,-0.0132 0.39869,-0.007 0.60626,0.0197 0.21088,0.0264 0.40857,0.0709 0.59308,0.1318 0.0428,0.0181 0.23394,0.0264 0.5733,0.0264 0.62273,0 1.05436,0.0527 1.29159,0.15816 0.061,0.0181 0.15321,0.0264 0.27677,0.0264 0.12191,-0.0164 0.3229,-0.0264 0.59967,-0.0264 0.35584,0 0.87313,0.0313 1.55518,0.0923 0.68533,0.0626 1.12355,0.10215 1.31795,0.11862 0.43821,0.0445 1.10048,0.13179 1.98351,0.26359 1.86654,0.3163 2.8204,0.47116 2.85994,0.46128 1.17626,0.084 2.16472,0.21087 2.96538,0.3822 0.0824,0.0231 0.33608,0.0329 0.75782,0.0329 0.0396,-0.0395 0.29325,-0.24712 0.76441,-0.62603 0.47446,-0.38221 0.82372,-0.68534 1.04777,-0.90938 0.0824,-0.0824 0.17298,-0.16804 0.27018,-0.257 0.0956,-0.0873 0.20428,-0.17792 0.32289,-0.27018 0.11862,-0.0923 0.20758,-0.16804 0.27018,-0.23064 0.56178,-0.47776 1.43162,-1.20593 2.60954,-2.1812 l 0.87643,-0.69193 c 0.25865,-0.18451 0.70181,-0.53541 1.33113,-1.05436 0.63261,-0.51729 1.1219,-0.89949 1.46951,-1.14661 1.12026,-0.77759 2.17132,-1.46951 3.15649,-2.07577 1.19933,-0.75452 2.22897,-1.36407 3.09058,-1.82536 0.33773,-0.1845 1.17626,-0.60625 2.51728,-1.26522 0.42174,-0.20099 0.90444,-0.42175 1.44974,-0.65898 0.46129,-0.20593 0.81878,-0.35584 1.07413,-0.4481 0.061,-0.0165 0.33113,-0.11531 0.81054,-0.29654 0.48269,-0.17957 0.85336,-0.33113 1.11366,-0.45469 0.12191,-0.061 0.29324,-0.12685 0.514,-0.19769 0.21911,-0.0741 0.37068,-0.12026 0.45469,-0.13838 0.061,-0.0214 0.16474,-0.0495 0.30972,-0.0857 0.14827,-0.0346 0.2537,-0.0626 0.31631,-0.0857 1.04447,-0.39869 2.68202,-0.83031 4.90935,-1.2916 1.38385,-0.20592 2.23392,-0.31795 2.55023,-0.33607 0.92256,-0.061 1.61448,-0.0923 2.07576,-0.0923 0.42175,0 0.75947,0.01 1.01482,0.0264 1.78253,0.084 3.2438,0.40692 4.38218,0.9687 1.26028,0.62932 2.08565,1.53211 2.47774,2.70838 0.25371,0.67709 0.3822,1.42668 0.3822,2.2471 0,0.46128 -0.0511,1.00493 -0.15156,1.62766 -0.31631,1.59966 -1.11696,3.26027 -2.39867,4.98185 -0.58483,0.76111 -1.26852,1.40196 -2.0494,1.9242 -0.14168,0.0791 -0.41845,0.27018 -0.83031,0.5733 -0.40857,0.30313 -0.73146,0.52059 -0.96869,0.65239 -1.5387,0.86161 -2.6293,1.40691 -3.2751,1.63425 -1.76275,0.62438 -3.04281,1.01317 -3.84182,1.16639 -0.29983,0.0626 -0.74134,0.13508 -1.32453,0.21746 -0.84019,0.12356 -1.55188,0.23063 -2.13507,0.32289 -0.46129,0.0395 -1.11367,0.0659 -1.95716,0.0791 -0.84019,0.01 -1.43656,0.0231 -1.7924,0.0395 -0.40033,0 -1.07248,-0.0395 -2.01647,-0.11861 -0.23722,-0.0214 -0.55353,-0.0411 -0.94892,-0.0593 -0.39209,-0.0214 -0.70181,-0.0428 -0.92915,-0.0659 -0.81713,-0.0214 -1.78582,-0.10873 -2.90608,-0.26359 -0.0791,0 -0.18945,-0.003 -0.32948,-0.0132 -0.13674,-0.008 -0.26194,-0.0165 -0.37561,-0.0264 -0.11532,-0.0132 -0.22241,-0.0296 -0.3229,-0.0527 -0.84019,-0.0395 -2.22733,-0.17791 -4.16471,-0.41515 -0.16804,-0.0164 -0.37562,-0.0363 -0.62603,-0.0593 -0.25041,-0.0214 -0.46457,-0.0412 -0.63921,-0.0593 -0.12355,0 -0.30641,-0.0198 -0.54694,-0.0593 -0.24217,-0.0428 -0.49093,-0.0758 -0.74464,-0.0988 -0.0626,-0.0165 -0.15486,-0.0264 -0.27677,-0.0264 -0.76111,-0.0824 -1.34925,-0.15486 -1.76605,-0.21746 -0.084,0 -0.2883,-0.0329 -0.61284,-0.0988 -0.32126,-0.0659 -0.49753,-0.0988 -0.52718,-0.0988 -0.46128,-0.12191 -0.72323,-0.17462 -0.78418,-0.15815 -1.36243,1.0906 -2.26522,1.85007 -2.70838,2.28005 -0.0181,0.0181 -0.0527,0.0577 -0.10544,0.11861 -0.0527,0.0626 -0.12356,0.13509 -0.21087,0.21746 -0.084,0.084 -0.16804,0.16474 -0.25041,0.24382 -0.20758,0.23723 -0.514,0.57166 -0.92257,1.00164 -0.40856,0.43163 -0.72157,0.75782 -0.93574,0.98187 -1.68367,1.8682 -2.83688,3.2471 -3.45961,4.13835 -0.29983,0.42175 -0.76112,1.05272 -1.38385,1.89126 -0.46128,0.5453 -1.17626,1.64743 -2.14166,3.30805 -0.80065,1.38384 -1.37725,2.42996 -1.7331,3.13671 -0.98516,1.86819 -1.59472,3.44643 -1.83194,4.73802 -0.0626,0.37891 -0.0923,0.75123 -0.0923,1.12026 0,0.46128 0.0659,0.92256 0.19769,1.38384 0.29819,0.8995 0.7397,1.56506 1.32454,1.99669 0.43822,0.3196 0.9308,0.52718 1.4761,0.61944 0.58319,0.12191 1.10708,0.18781 1.56836,0.19769 0.33772,0 0.799,-0.0313 1.38384,-0.0923 1.00493,0 2.54693,-0.36902 4.626,-1.10707 0.64579,-0.23723 1.59471,-0.66886 2.84676,-1.29159 2.49916,-1.28335 4.31298,-2.25534 5.44312,-2.91926 0.23723,-0.1219 0.58649,-0.32619 1.04777,-0.61284 0.46128,-0.28995 0.77264,-0.48435 0.93574,-0.58649 0.27677,-0.18451 0.83195,-0.55518 1.66721,-1.11366 0.83854,-0.56177 1.54364,-1.05106 2.1153,-1.46951 0.94398,-0.62768 1.80559,-1.23887 2.58318,-1.83195 0.64579,-0.48269 1.05601,-0.72487 1.23228,-0.72487 0.0824,0.0231 0.1252,0.056 0.1252,0.0988 0,0.0395 -0.0988,0.13015 -0.29654,0.27018 -0.10214,0.084 -0.35913,0.28006 -0.77099,0.58648 -0.40856,0.30807 -0.69522,0.52389 -0.85667,0.64579 -1.17791,0.86161 -2.15813,1.56836 -2.93902,2.1219 -0.43986,0.29984 -1.01153,0.6771 -1.71333,1.13344 -0.70346,0.45304 -1.33113,0.85502 -1.88466,1.20592 -0.55355,0.34761 -1.16969,0.71004 -1.84514,1.08731 -1.78416,1.02799 -3.41842,1.89949 -4.90276,2.61612 -1.5387,0.75947 -2.9176,1.30147 -4.13835,1.62766 -1.6392,0.54366 -3.36077,0.81713 -5.16635,0.81713 z m 29.92399,-26.3853 c 0.4827,0 0.91267,-0.01 1.29159,-0.0329 2.03787,-0.0395 3.38053,-0.14168 4.02633,-0.30972 1.26028,-0.14003 2.51233,-0.40198 3.75615,-0.78418 0.75451,-0.16145 1.29817,-0.33937 1.62766,-0.53376 1.22075,-0.42175 2.40031,-0.97034 3.53869,-1.64744 0.18451,-0.12191 0.46458,-0.30477 0.84348,-0.54695 0.37726,-0.24052 0.64909,-0.42339 0.81713,-0.54695 0.85996,-0.62273 1.71004,-1.4728 2.55023,-2.55023 l 0.0923,-0.19769 c 0.10049,-0.16639 0.24546,-0.41186 0.43492,-0.73805 0.19275,-0.32948 0.34266,-0.5799 0.4481,-0.75123 0.10873,-0.17463 0.21911,-0.41186 0.32949,-0.71169 0.11367,-0.29818 0.21746,-0.5799 0.30972,-0.84349 0.20592,-0.6985 0.30971,-1.41679 0.30971,-2.15484 0,-0.43822 -0.0511,-0.88961 -0.15156,-1.35089 -0.32125,-1.4448 -1.28171,-2.45963 -2.87972,-3.04447 -0.92256,-0.29818 -1.82535,-0.44809 -2.70838,-0.44809 -0.14168,0 -0.36902,-0.003 -0.68533,-0.0132 -0.31302,-0.0132 -0.55353,-0.0198 -0.72487,-0.0198 -0.90609,0 -1.68039,0.0527 -2.32618,0.15815 -1.76276,0.29489 -2.68861,0.45305 -2.78086,0.47446 -0.8402,0.1631 -1.53212,0.33279 -2.07577,0.50742 -1.76276,0.43986 -3.5354,1.05106 -5.31792,1.83194 -1.70509,0.73805 -2.59636,1.13179 -2.67544,1.17957 -2.10542,1.15979 -3.56504,2.00163 -4.38217,2.52386 -0.60625,0.37891 -1.49916,0.96705 -2.67543,1.76605 -0.084,0.0445 -1.20592,0.85502 -3.36736,2.43162 -0.36079,0.25535 -0.75123,0.56671 -1.17297,0.93574 -0.27676,0.18451 -0.59802,0.43822 -0.9621,0.75782 -0.36573,0.3163 -0.62932,0.53706 -0.79077,0.65897 -0.64579,0.48435 -1.49587,1.20592 -2.55023,2.16802 0.92256,0.23724 2.11531,0.42669 3.57823,0.56672 3.69355,0.44481 6.46782,0.73146 8.32284,0.86326 1.32124,0.12356 2.07576,0.18451 2.26027,0.18451 0.94399,0.10214 1.80559,0.15156 2.58319,0.15156 0.0609,0 0.23392,0.007 0.52059,0.0198 0.28994,0.01 0.48434,0.0247 0.58648,0.0461 z m 24.09207,-5.83192 c 0.18452,0.12356 0.29654,0.31466 0.33607,0.57331 0,0.43986 -0.10213,0.87479 -0.30312,1.30476 -0.19769,0.43164 -0.39209,0.76771 -0.5799,1.00824 -0.18945,0.24217 -0.46787,0.55189 -0.8369,0.92915 -0.23722,0.23723 -0.58648,0.55683 -1.04776,0.95551 -0.46128,0.40033 -0.78418,0.69192 -0.96869,0.87644 -0.25536,0.20263 -0.58319,0.4794 -0.98187,0.83031 -0.40033,0.3476 -0.75783,0.64908 -1.07413,0.90279 -0.12356,0.12356 -0.35914,0.28995 -0.7051,0.50082 -0.34267,0.21087 -0.56013,0.35913 -0.65239,0.44151 -0.16309,0.12356 -0.82371,0.54365 -1.9835,1.25864 l -0.78419,0.50741 c -0.80064,0.42174 -2.0148,1.00658 -3.64412,1.75287 -0.40033,0.16309 -0.8369,0.33278 -1.31136,0.50741 -0.47117,0.17627 -0.87973,0.30971 -1.22568,0.40197 -0.34762,0.0923 -0.81055,0.21746 -1.39044,0.37562 -0.5799,0.15815 -1.00493,0.28006 -1.27182,0.36243 -0.10214,0.0231 -0.28995,0.0758 -0.56671,0.15816 -0.27678,0.0791 -0.48765,0.13014 -0.63262,0.15156 -0.92257,0.20263 -1.66062,0.34102 -2.21415,0.41515 -0.47941,0.0626 -0.89456,0.25042 -1.24546,0.56672 -1.61779,1.38384 -3.06753,2.78746 -4.34923,4.21085 -1.19933,1.30476 -1.92256,2.12683 -2.16802,2.46455 -0.0626,0.0791 -0.24712,0.30313 -0.55354,0.67216 -0.30642,0.36902 -0.53377,0.66886 -0.67874,0.8962 -0.56178,0.86161 -0.9621,1.799 -1.19933,2.81382 0.0231,0.37891 0.2224,0.73146 0.59966,1.06094 0.29984,0.23394 0.61285,0.34926 0.94233,0.34926 0.12356,0 0.22076,-0.008 0.28996,-0.0264 1.084,-0.20594 2.37559,-0.60626 3.87476,-1.19933 1.28171,-0.54366 2.70838,-1.23558 4.27674,-2.07577 0.69357,-0.38221 1.53211,-0.9308 2.51727,-1.64744 0.25865,-0.16145 0.68534,-0.46951 1.27842,-0.92256 0.59307,-0.4514 1.04941,-0.78583 1.37066,-1.00164 0.0396,-0.0164 0.11861,-0.0725 0.23723,-0.16475 0.11861,-0.0923 0.21746,-0.15979 0.29653,-0.20428 0.061,0 0.12192,0.0626 0.18452,0.18452 0,0.0626 -0.18945,0.24217 -0.56672,0.54035 -2.46126,1.82372 -4.14824,2.99669 -5.06091,3.51893 -1.17792,0.64579 -2.64743,1.36407 -4.40854,2.15484 -1.38384,0.58484 -2.61447,0.98022 -3.69025,1.18615 -0.29819,0.0395 -0.52059,0.0642 -0.66556,0.0725 -0.29325,0 -0.56343,-0.0461 -0.81054,-0.13839 -1.00494,-0.33773 -1.50905,-1.03789 -1.50905,-2.10213 0,-0.18451 0.0313,-0.39538 0.0922,-0.63261 0.42175,-1.68203 1.16474,-3.16308 2.22734,-4.44148 0.0626,-0.0824 0.68203,-0.82701 1.8649,-2.23392 0.1219,-0.12192 0.20428,-0.21417 0.24381,-0.27678 l 2.87312,-3.02469 c 0,-0.0214 0.056,-0.0725 0.17135,-0.15156 0.11366,-0.0824 0.17956,-0.15156 0.19768,-0.20428 l 1.23228,-1.09389 c 0.14498,-0.14004 1.11367,-0.99011 2.90608,-2.55023 0.69851,-0.5832 1.77923,-1.4448 3.24215,-2.58318 0.67544,-0.52223 1.99998,-1.42503 3.9736,-2.70838 0.14004,-0.0824 0.35585,-0.20758 0.6458,-0.37561 0.29324,-0.17133 0.50906,-0.30643 0.6458,-0.40857 0.33772,-0.18451 1.51069,-0.84514 3.51892,-1.98351 1.72157,-0.9621 3.50574,-1.81218 5.35086,-2.55023 0.54365,-0.18451 1.09389,-0.34431 1.64743,-0.48105 0.33773,-0.0396 0.58814,-0.0593 0.75123,-0.0593 0.46128,-0.008 0.89127,0.10379 1.29159,0.33608 z m -0.35585,1.64744 c 0.1664,-0.43822 0.21911,-0.71993 0.15816,-0.84349 -0.12356,-0.0428 -0.21581,-0.0692 -0.27677,-0.0791 -0.14498,0 -0.30807,0.0296 -0.48764,0.0857 -0.18122,0.0577 -0.37562,0.12192 -0.58649,0.19111 -0.20758,0.0709 -0.33278,0.11697 -0.37561,0.13838 -0.98517,0.36079 -1.67709,0.6425 -2.07577,0.84349 -1.48598,0.76111 -2.81711,1.46786 -3.99338,2.12189 -1.44644,0.80066 -2.67543,1.50246 -3.69025,2.10872 -0.27677,0.14498 -0.64579,0.37232 -1.10707,0.67874 -0.46129,0.30807 -0.75453,0.50082 -0.87644,0.5799 -0.23724,0.16803 -0.57825,0.39868 -1.02141,0.69192 -0.43986,0.28995 -0.72158,0.48105 -0.84349,0.5733 -1.72321,1.23888 -2.83358,2.0626 -3.3344,2.47116 -0.23723,0.18451 -0.60296,0.48105 -1.0939,0.88961 -0.49258,0.40527 -0.8616,0.69851 -1.10707,0.88303 -0.33938,0.29983 -0.55025,0.53047 -0.63262,0.69192 0.46129,0 0.8715,-0.0411 1.23228,-0.1252 1.42339,-0.23229 2.90937,-0.60956 4.46125,-1.13344 0.061,-0.0214 0.3575,-0.11532 0.88961,-0.28336 0.56673,-0.18451 1.71005,-0.67545 3.43326,-1.4761 1.15485,-0.52223 2.40526,-1.23887 3.74956,-2.14825 0.0214,0 0.10214,-0.0527 0.24382,-0.15816 0.9654,-0.58319 2.09884,-1.44479 3.40031,-2.58318 0.0609,-0.0609 0.42174,-0.37561 1.08071,-0.94233 0.66227,-0.57001 1.15321,-1.00988 1.46952,-1.31794 0.71992,-0.71499 1.1812,-1.33443 1.38383,-1.85831 z m -9.35741,25.12666 c -0.71664,0 -1.21746,-0.15815 -1.50247,-0.47446 -0.20758,-0.27677 -0.30972,-0.58978 -0.30972,-0.94233 0,-0.75453 0.37232,-1.64744 1.12025,-2.67544 0.64581,-0.87808 1.2257,-1.51728 1.7397,-1.91761 l -1.04776,0.56672 c -1.23888,0.73805 -2.57001,1.41021 -3.99339,2.01646 -1.34431,0.56342 -2.2784,0.84348 -2.80064,0.84348 -0.37725,0 -0.72651,-0.0923 -1.04776,-0.27677 -0.16145,-0.10048 -0.33608,-0.3509 -0.52059,-0.75122 -0.0395,-0.54366 0.0956,-1.0939 0.40197,-1.64744 0,-0.0395 0.20922,-0.40856 0.62602,-1.10707 0.60627,-0.73805 1.14332,-1.29159 1.61449,-1.66062 1.08895,-0.94398 2.19109,-1.77429 3.30805,-2.49092 0.54365,-0.33772 1.00494,-0.50741 1.38384,-0.50741 0.23723,0.10214 0.34926,0.27019 0.33607,0.50741 0,0.42174 -0.16309,0.74958 -0.48763,0.98187 -0.10544,0.12356 -0.30643,0.2883 -0.59967,0.49423 -1.18285,0.8402 -2.38218,1.74628 -3.59799,2.72157 -0.60626,0.48434 -1.17133,1.04776 -1.69357,1.69355 -0.33772,0.46129 -0.50741,0.83031 -0.50741,1.10708 0,0.12356 0.0313,0.21581 0.0923,0.27677 0.1631,0.23393 0.39373,0.34925 0.69192,0.34925 0.16145,0 0.37232,-0.0296 0.63262,-0.0923 0.29324,-0.061 0.86325,-0.26029 1.70673,-0.59967 1.7397,-0.77759 2.88137,-1.33441 3.42667,-1.67379 1.84512,-1.04447 3.16637,-1.90608 3.96702,-2.58317 0.75947,-0.62273 1.23229,-1.03459 1.41679,-1.23228 0.0791,-0.0791 0.43658,-0.39045 1.07414,-0.93575 0.20592,-0.14497 0.60131,-0.47116 1.18615,-0.98187 0.33772,-0.29818 0.65403,-0.43162 0.94892,-0.40198 0.3822,0.084 0.64249,0.37563 0.78418,0.87644 0,0.1631 -0.0824,0.31301 -0.24383,0.44811 l -0.50741,0.42833 c -0.23722,0.18451 -0.66885,0.52553 -1.29158,1.02141 -0.62438,0.49752 -1.01317,0.80724 -1.16639,0.92914 -0.52388,0.48436 -1.27676,1.13674 -2.26028,1.95716 -0.20757,0.1631 -1.18615,1.10049 -2.93902,2.81382 -0.58483,0.58484 -0.90773,1.16967 -0.96869,1.75287 -0.0231,0.20263 0.0659,0.36903 0.26359,0.50082 0.20099,0.1285 0.43657,0.21581 0.7051,0.26358 0.0396,0.0231 0.1351,0.033 0.28995,0.033 0.29819,0 0.7084,-0.056 1.23228,-0.17133 0.98352,-0.23229 2.07577,-0.68204 3.2751,-1.3509 l 0.49423,-0.27677 c 1.26029,-0.69851 3.2784,-2.07083 6.05597,-4.11858 0.56672,-0.42175 0.88961,-0.58155 0.96869,-0.48106 0.0824,0.084 -0.15651,0.3262 -0.71828,0.72487 -0.084,0.0626 -0.23394,0.16474 -0.4481,0.30972 -0.33937,0.25536 -0.61944,0.46458 -0.84349,0.62603 -2.48268,1.78417 -4.37558,3.0148 -5.68036,3.69025 -0.80064,0.3822 -1.4695,0.67545 -2.00986,0.87644 -0.78254,0.36078 -1.63426,0.54035 -2.55681,0.54035 z m 10.40189,1.83195 c -0.42174,0 -0.80065,-0.14333 -1.14003,-0.42833 -0.33772,-0.28007 -0.5074,-0.66062 -0.5074,-1.14003 0,-0.0824 0.0231,-0.23229 0.0659,-0.44811 0.12355,-0.56177 0.55847,-1.07577 1.30476,-1.54199 0.74794,-0.46952 1.59307,-0.82701 2.53705,-1.07413 0.0396,0 0.20757,-0.0346 0.50741,-0.10543 0.29818,-0.0692 0.51729,-0.13179 0.65898,-0.18451 0.14497,-0.0214 0.36407,-0.0478 0.65896,-0.0791 0.29819,-0.0296 0.52059,-0.0544 0.66557,-0.0725 0.23723,-0.0428 0.57496,-0.0857 1.01482,-0.1252 0.10049,-0.0214 0.31136,-0.0363 0.63261,-0.0461 0.32455,-0.008 0.52389,-0.0132 0.59967,-0.0132 0.18451,0 0.3855,-0.003 0.60625,-0.0132 0.21911,-0.0132 0.41021,-0.0198 0.57331,-0.0198 h 0.32289 c 0.23724,0.0231 0.35091,0.0231 0.34268,0 0.46128,-0.31631 0.92255,-0.75782 1.38384,-1.32454 0.1005,-0.10049 0.25206,-0.25041 0.45469,-0.4481 0.20592,-0.20098 0.33937,-0.34432 0.40198,-0.42833 0.42174,-0.43822 0.81218,-1.08895 1.17296,-1.95056 0.14003,-0.50083 0.21088,-0.91927 0.21088,-1.25864 0,-0.38221 -0.11697,-0.65898 -0.34926,-0.83031 -0.18451,-0.10543 -0.44646,-0.15815 -0.78418,-0.15815 -0.23723,0 -0.54035,0.0428 -0.90938,0.1252 -1.00658,0.23723 -1.82535,0.52554 -2.45797,0.86326 -0.84348,0.46128 -1.49587,0.84678 -1.95715,1.1532 -0.23394,0.12356 -0.61779,0.36903 -1.15321,0.73805 -0.53212,0.36903 -0.84843,0.58978 -0.94892,0.65898 -1.15979,0.69851 -2.01316,1.31465 -2.55682,1.84512 -0.4168,0.31631 -1.06754,0.99834 -1.95056,2.04282 -0.0609,0.14497 -0.21911,0.39209 -0.47446,0.73805 -0.14497,0.18451 -0.28994,0.2883 -0.43492,0.30971 -0.27676,0 -0.41516,-0.0923 -0.41516,-0.27676 0.48435,-1.29982 1.1252,-2.46786 1.92421,-3.50574 0.25535,-0.31631 0.53706,-0.70016 0.84348,-1.1532 0.20758,-0.29819 0.44811,-0.58649 0.72487,-0.86326 0.061,-0.061 0.21912,-0.24053 0.47446,-0.54036 0.25866,-0.30313 0.56178,-0.65403 0.9094,-1.05435 0.67544,-0.71994 1.09553,-1.19275 1.25863,-1.4168 0.39868,-0.42175 0.81053,-0.84019 1.23228,-1.25864 0.29819,-0.29819 0.78088,-0.75782 1.44974,-1.37725 0.67215,-0.61944 1.19933,-1.10873 1.58154,-1.46951 l 1.35089,-1.12685 c 0.2537,-0.25371 0.50412,-0.46293 0.75124,-0.62603 0.10543,-0.061 0.24052,-0.17132 0.40856,-0.32948 0.17133,-0.16145 0.29653,-0.27348 0.37561,-0.33608 0.44317,-0.33773 1.12685,-0.84513 2.04941,-1.52223 1.08401,-0.75452 1.88466,-1.35913 2.39866,-1.81218 0.061,-0.061 0.11203,-0.10708 0.15157,-0.13838 l 4.1713,-2.827 c 0.18452,-0.12191 0.43163,-0.27347 0.74464,-0.45468 0.31137,-0.17958 0.6145,-0.35915 0.90938,-0.54037 0.29819,-0.17957 0.62767,-0.3822 0.98847,-0.60625 0.64578,-0.39868 1.66061,-0.93739 3.04445,-1.61448 2.38878,-1.13674 4.41842,-1.78747 6.08892,-1.95057 1.17627,0 1.96045,0.14827 2.35254,0.44152 0.37726,0.26029 0.58813,0.69027 0.63261,1.29158 0,0.0231 -0.0115,0.1285 -0.0329,0.31631 -0.0231,0.18946 -0.0428,0.32619 -0.0593,0.40856 -0.10543,0.43986 -0.21416,0.72158 -0.32289,0.84349 -0.52389,0.72157 -0.81549,1.11201 -0.87645,1.17297 -0.33936,0.40033 -0.78088,0.83031 -1.32453,1.29159 -0.27676,0.29489 -1.07742,0.91433 -2.39866,1.85831 -0.0626,0.0395 -0.22405,0.14991 -0.48764,0.32948 -0.2603,0.18122 -0.4514,0.32125 -0.57331,0.42175 -0.18451,0.14497 -0.56507,0.38714 -1.14002,0.72487 -0.20264,0.12356 -0.51895,0.30642 -0.94893,0.54694 -0.43162,0.24218 -0.75452,0.42834 -0.96869,0.56013 l -1.44974,0.84349 c -0.1631,0.084 -0.64415,0.35584 -1.44315,0.81713 -0.18451,0.12356 -0.49259,0.27347 -0.92256,0.4481 -1.92915,0.87972 -3.17461,1.43656 -3.73639,1.67379 l -0.63261,0.18451 c -0.29489,0.084 -0.514,0.15651 -0.65897,0.21746 -0.88303,0.33938 -1.98681,0.61944 -3.30804,0.84349 -0.90115,0.12355 -1.90115,0.1911 -2.99834,0.20428 -0.48434,0 -0.92586,-0.0412 -1.32453,-0.1252 -1.46293,1.28335 -2.28335,2.00657 -2.45798,2.16802 -0.14497,0.12356 -0.36573,0.30972 -0.65897,0.56012 -0.28995,0.25042 -0.57331,0.50577 -0.85007,0.76442 l -0.47446,0.47446 c -1.00659,1.00658 -1.68698,1.71828 -2.04283,2.13507 -0.26029,0.29984 -0.88138,1.06425 -1.86489,2.29323 0.14497,-0.12191 0.28336,-0.24547 0.41515,-0.36902 0.27677,-0.27677 0.69522,-0.6145 1.25864,-1.01482 0.56672,-0.39868 0.93739,-0.67215 1.11366,-0.81713 l 0.36903,-0.24382 c 0.1005,-0.061 0.26524,-0.1598 0.49424,-0.29654 0.23228,-0.14004 0.41515,-0.25206 0.54694,-0.33608 0.67544,-0.46128 1.05106,-0.70016 1.12685,-0.71828 0.14002,-0.0824 0.44809,-0.26359 0.92256,-0.54035 0.47775,-0.27677 0.85666,-0.46458 1.13343,-0.56672 0.14497,-0.0428 0.35255,-0.12191 0.62602,-0.23723 0.27183,-0.11862 0.46953,-0.20758 0.59309,-0.27019 0.69356,-0.29818 1.46292,-0.42174 2.3064,-0.36902 0.54036,0.0395 0.97034,0.17134 1.2916,0.39539 0.1845,0.20758 0.30312,0.34266 0.35583,0.40856 0.056,0.0659 0.12026,0.20429 0.1911,0.41516 0.0741,0.21087 0.11203,0.46622 0.11203,0.7644 -0.20758,1.61778 -0.94892,3.12354 -2.22733,4.52056 -0.0445,0.0395 -0.0988,0.089 -0.16475,0.14498 -0.0659,0.0577 -0.11861,0.10543 -0.15815,0.14497 l 1.47611,-0.15156 c 0.58319,-0.061 1.18285,-0.15981 1.79899,-0.29654 0.56178,-0.12191 1.21251,-0.33114 1.95057,-0.62603 0.78088,-0.3196 1.89454,-0.99175 3.341,-2.01646 0.14002,-0.14497 0.28664,-0.21746 0.44151,-0.21746 h 0.0659 c 0.18452,0.084 0.14168,0.20758 -0.1252,0.36903 -1.57825,1.13838 -2.66885,1.83689 -3.2751,2.09553 -0.3608,0.1631 -0.82207,0.33608 -1.38385,0.52059 -1.00658,0.27678 -1.86819,0.44645 -2.58317,0.50741 -0.88303,0.12356 -1.63261,0.21087 -2.2471,0.26359 -0.42174,0.35585 -0.72488,0.60626 -0.90939,0.75123 l -0.56672,0.36903 c -0.92256,0.76111 -2.28663,1.59142 -4.09222,2.49091 -0.96211,0.46129 -1.79241,0.75288 -2.49092,0.87644 -0.86161,0.16145 -1.47939,0.27018 -1.85831,0.3229 -0.0824,0.0214 -0.22076,0.0329 -0.41515,0.0329 z m 11.08394,-14.8994 c 0.3822,0 0.84348,-0.0296 1.38384,-0.0922 0.92257,-0.061 1.98351,-0.25206 3.18284,-0.57331 1.9275,-0.56178 4.10211,-1.43327 6.52384,-2.61613 1.34431,-0.67545 3.10706,-1.66884 5.29156,-2.97856 0.23229,-0.14497 0.45634,-0.29159 0.67215,-0.4415 0.21417,-0.14828 0.46129,-0.31796 0.73805,-0.50742 0.27677,-0.18781 0.49753,-0.33277 0.66557,-0.43492 0.41679,-0.27677 0.93903,-0.66721 1.56836,-1.17297 2.34594,-1.90608 3.45631,-3.36735 3.3344,-4.38218 -0.0396,-0.20099 -0.0757,-0.34596 -0.10544,-0.43492 -0.0313,-0.0873 -0.0988,-0.18616 -0.20428,-0.29654 -0.10214,-0.11367 -0.24876,-0.18121 -0.44151,-0.20428 -0.10544,-0.0214 -0.2603,-0.0329 -0.46128,-0.0329 -1.18286,0 -3.15649,0.6425 -5.92417,1.9242 -2.36901,1.17792 -4.24874,2.27016 -5.64081,3.2751 -0.0396,0.0231 -0.0988,0.0593 -0.17794,0.11203 -0.0758,0.0494 -0.14332,0.084 -0.20428,0.10543 -0.69851,0.37891 -1.56012,0.94727 -2.58317,1.70674 -2.0214,1.44645 -3.13507,2.2504 -3.341,2.41185 -0.12355,0.084 -0.38056,0.26359 -0.77099,0.54035 -0.38715,0.27677 -0.67216,0.49753 -0.85667,0.65898 -0.56671,0.48434 -1.00823,0.81053 -1.32454,0.98187 -0.16309,0.10544 -0.62437,0.47117 -1.38384,1.0939 l -1.38385,1.17297 c 0.50082,0.12356 0.98187,0.18451 1.44316,0.18451 z m -10.95873,14.20748 c 0.77758,0.061 1.57658,-0.0675 2.39866,-0.3888 0.73805,-0.29324 1.66885,-0.8056 2.79405,-1.53541 1.24216,-0.799 2.02304,-1.32124 2.33935,-1.56835 0.12191,-0.1005 0.26688,-0.2257 0.43492,-0.37562 0.17134,-0.14827 0.31796,-0.28007 0.44152,-0.39538 h -1.23229 c -0.58483,0 -1.17297,0.0379 -1.76604,0.11202 -0.46128,0 -0.82701,0.051 -1.0939,0.15156 -0.4794,0.0395 -0.8369,0.0906 -1.07412,0.15157 -0.0626,0 -0.19441,0.0313 -0.39539,0.0923 -0.1977,0.0626 -0.31631,0.0923 -0.35585,0.0923 -0.88302,0.14497 -1.72321,0.48764 -2.52386,1.028 -0.79901,0.53707 -1.19933,1.08566 -1.19933,1.64744 0,0.20757 0.0428,0.38714 0.12519,0.54035 0.2949,0.29984 0.66393,0.44811 1.10709,0.44811 z m 0,0"
       style="fill:#ff914d;fill-opacity:1;fill-rule:nonzero;stroke:none;stroke-width:0.562324"
       aria-label="Club" />
    <path
       id="path5"
       d="m 390.22877,650.07792 c 1.28499,0 2.38548,-0.56013 3.15648,-1.46292 l -0.61944,-0.52719 c -0.57989,0.69193 -1.44974,1.13344 -2.47773,1.13344 -1.8649,0 -3.23556,-1.44315 -3.23556,-3.42667 0,-1.96373 1.3443,-3.4003 3.18943,-3.4003 0.97528,0 1.84512,0.40857 2.48433,1.1532 l 0.65897,-0.56012 c -0.771,-0.88961 -1.88466,-1.44315 -3.11695,-1.44315 -2.28004,0 -4.14494,1.87807 -4.14494,4.31628 0,2.3723 1.76605,4.21743 4.10541,4.21743 z m 3.71002,-0.12521 h 0.90279 l 0.78418,-2.17461 h 3.13671 l 0.78418,2.17461 h 0.94893 l -3.15649,-8.53371 h -0.24382 z m 1.97033,-2.97856 1.285,-3.59141 1.285,3.59141 z m 7.59137,3.22897 h 0.25042 l 3.17625,-8.5403 h -0.85007 l -2.39867,6.48431 -2.26687,-6.48431 h -0.91597 z m 3.42667,-0.25041 h 0.90279 l 0.78418,-2.17461 h 3.13671 l 0.78418,2.17461 h 0.94893 l -3.15649,-8.53371 h -0.24382 z m 1.97033,-2.97856 1.28499,-3.59141 1.28501,3.59141 z m 10.8846,3.10377 c 1.028,0 1.94396,-0.47447 2.64907,-1.27841 l 1.14662,1.27841 0.61943,-0.56013 -1.25864,-1.4102 c 0.44151,-0.73805 0.75123,-1.66721 0.85008,-2.70839 h 1.1532 v -0.76441 h -1.90444 c 0,1.14003 -0.22405,2.12849 -0.61943,2.90608 l -2.55022,-2.82041 c -0.4547,-0.52059 -0.72488,-0.94892 -0.72488,-1.42338 0,-0.5799 0.41516,-0.97528 1.03459,-0.97528 0.67215,0 1.10049,0.48105 1.10049,1.14002 h 0.84348 c 0,-1.08071 -0.84348,-1.91761 -1.95715,-1.91761 -1.06095,0 -1.86489,0.76441 -1.86489,1.80559 0,0.62602 0.29653,1.15979 0.87643,1.82535 -1.19934,0.50741 -1.97692,1.50246 -1.97692,2.60295 0,1.29817 1.10049,2.29982 2.58318,2.29982 z m 0.0527,-0.74465 c -1.10048,0 -1.799,-0.65238 -1.799,-1.60789 0,-0.91597 0.63261,-1.63426 1.67379,-1.95056 l 2.2471,2.49751 c -0.55353,0.67874 -1.28499,1.06094 -2.12189,1.06094 z m 11.11853,0.74465 c 1.46292,0 2.49751,-0.95552 2.49751,-2.313 0,-1.10049 -0.69192,-1.88467 -2.18779,-2.46456 -1.1598,-0.4547 -1.63426,-0.94892 -1.63426,-1.68038 0,-0.76441 0.53377,-1.27183 1.37726,-1.27183 0.65238,0 1.19933,0.30972 1.69356,1.00165 l 0.66557,-0.54695 c -0.61944,-0.84349 -1.42339,-1.25864 -2.34595,-1.25864 -1.33772,0 -2.25369,0.87644 -2.25369,2.14825 0,1.06754 0.6458,1.81877 2.12848,2.39866 1.18616,0.47446 1.69357,0.99505 1.69357,1.74629 0,0.86325 -0.65898,1.44973 -1.62108,1.44973 -0.8303,0 -1.49587,-0.43492 -2.07576,-1.31135 l -0.67216,0.54036 c 0.61944,1.00164 1.62108,1.56177 2.73474,1.56177 z m 4.23226,-0.12521 h 0.86326 v -3.28828 h 1.11366 c 1.66062,0 2.84677,-1.04118 2.84677,-2.49751 0,-1.46292 -1.18615,-2.5041 -2.84677,-2.5041 h -1.97692 z m 0.86326,-4.09222 v -3.39372 h 1.11366 c 1.18616,0 1.98351,0.67215 1.98351,1.68697 0,1.03459 -0.79735,1.70675 -1.98351,1.70675 z m 5.63257,4.09222 h 0.86326 v -8.28989 h -0.86326 z m 3.09224,0 h 0.86325 v -3.41348 h 1.11367 l 2.29981,3.41348 h 1.04118 l -2.35912,-3.51233 c 1.10049,-0.28336 1.8649,-1.19933 1.8649,-2.33935 0,-1.42338 -1.18615,-2.43821 -2.84677,-2.43821 h -1.97692 z m 0.86325,-4.21743 v -3.26851 h 1.11367 c 1.18616,0 1.9835,0.6458 1.9835,1.62108 0,1.00164 -0.79734,1.64743 -1.9835,1.64743 z m 6.0642,4.21743 h 0.86326 v -8.28989 h -0.86326 z m 5.06916,0 h 0.86984 v -7.48594 h 2.72157 v -0.80395 h -6.31297 v 0.80395 h 2.72156 z m 7.06584,0.12521 c 1.46292,0 2.49752,-0.95552 2.49752,-2.313 0,-1.10049 -0.69192,-1.88467 -2.1878,-2.46456 -1.15979,-0.4547 -1.63425,-0.94892 -1.63425,-1.68038 0,-0.76441 0.53377,-1.27183 1.37725,-1.27183 0.65239,0 1.19933,0.30972 1.69357,1.00165 l 0.66556,-0.54695 c -0.61943,-0.84349 -1.42339,-1.25864 -2.34595,-1.25864 -1.33771,0 -2.25369,0.87644 -2.25369,2.14825 0,1.06754 0.6458,1.81877 2.12849,2.39866 1.18615,0.47446 1.69356,0.99505 1.69356,1.74629 0,0.86325 -0.65898,1.44973 -1.62108,1.44973 -0.8303,0 -1.49586,-0.43492 -2.07576,-1.31135 l -0.67215,0.54036 c 0.61943,1.00164 1.62107,1.56177 2.73473,1.56177 z m 0,0"
       style="fill:#ff914d;fill-opacity:1;fill-rule:nonzero;stroke:none;stroke-width:0.562324"
       aria-label="CAVA &amp; SPIRITS" />
  </g>
</svg>
